<svg width="133" height="97" viewBox="0 0 133 97" fill="none" xmlns="http://www.w3.org/2000/svg">
<path d="M43 7.01605L21.5 52.016H39.5L55.5 20.516L86 82.0161C86.6667 83.6827 88.7 88.1161 93.5 92.5161C98.3 96.9161 108 96.0161 112 96.0161L67.5 7.01605C66.5 5.01611 63.5 0.516071 55.5 0.516052C45.492 0.516029 43 7.01605 43 7.01605Z" fill="white"/>
<path d="M14.5 66.0161L0 95.5161C4.5 96.0161 12.7277 97.4692 18.5 93.0161C20.58 91.4115 22 89.5161 23 88.0161C24 86.5161 29.5 75.0161 29.5 75.0161H71.5L63.5 59.0161H27C25.8333 59.0161 22.8 59.3161 20 60.5161C17.2 61.7161 15.1667 64.6828 14.5 66.0161Z" fill="white"/>
<path d="M115 79.5027V24.012C118 24.512 120.827 25.6775 124.5 27.5115C128.251 29.3844 132.333 32.6772 133 33.5104V96C128 96 123.6 94.3003 120 91.5008C116.4 88.7012 115.167 82.0023 115 79.5027Z" fill="white"/>
<path d="M115 0.0160585V16.0134C116.5 16.3466 120.5 17.6131 124.5 20.0127C128.5 22.4123 131.5 25.3451 133 26.5116V15.5134C133 15.5134 133 8.51468 127.5 4.01539C123.772 0.965802 117.833 -0.15058 115 0.0160585Z" fill="white"/>
</svg>
