<svg width="39" height="28" viewBox="0 0 39 28" fill="none" xmlns="http://www.w3.org/2000/svg">
<rect x="0.795918" y="5.69118" width="32.1864" height="20.6006" rx="1.32542" stroke="white" stroke-width="1.59184"/>
<path d="M4.76643 11.299C5.03678 10.4035 5.86181 9.79077 6.79725 9.79077H36.1437C37.5662 9.79077 38.5856 11.1634 38.1745 12.5252L34.2336 25.5796C33.9632 26.4751 33.1382 27.0878 32.2028 27.0878H2.8563C1.43377 27.0878 0.414364 25.7153 0.825484 24.3534L4.76643 11.299Z" fill="white"/>
<path d="M0 0.8159C0 0.365291 0.365291 0 0.8159 0H12.4017C12.8523 0 13.2176 0.365291 13.2176 0.8159V6.5272C13.2176 6.97781 12.8523 7.3431 12.4017 7.3431H0.815901C0.365292 7.3431 0 6.97781 0 6.5272V0.8159Z" fill="white"/>
</svg>
