<svg width="55" height="41" viewBox="0 0 55 41" fill="none" xmlns="http://www.w3.org/2000/svg">
<rect x="1" y="4.05566" width="32.566" height="32.566" rx="2.41146" stroke="white" stroke-width="2"/>
<rect x="49.2712" y="19.0969" width="3.05556" height="14.7049" transform="rotate(90 49.2712 19.0969)" fill="white"/>
<rect x="44.1143" y="14.8958" width="2.86458" height="9.54861" transform="rotate(90 44.1143 14.8958)" fill="white"/>
<rect x="46.0242" y="23.4893" width="2.91314" height="11.4583" transform="rotate(90 46.0242 23.4893)" fill="white"/>
<circle cx="51.8493" cy="20.3388" r="3.15104" fill="white"/>
<circle cx="44.2096" cy="14.6093" r="3.15104" fill="white"/>
<circle cx="46.1198" cy="26.6403" r="3.15104" fill="white"/>
<mask id="path-8-inside-1_195_73" fill="white">
<rect x="9.54834" y="12.4136" width="15.8748" height="15.8748" rx="1.33681"/>
</mask>
<rect x="9.54834" y="12.4136" width="15.8748" height="15.8748" rx="1.33681" fill="white" stroke="white" stroke-width="2.91667" mask="url(#path-8-inside-1_195_73)"/>
<path d="M12.795 3.15104C12.795 2.31533 12.463 1.51385 11.8721 0.922919C11.2812 0.331984 10.4797 6.30942e-08 9.64396 0C8.80825 -6.30942e-08 8.00677 0.331984 7.41584 0.922919C6.8249 1.51385 6.49292 2.31533 6.49292 3.15104L9.64396 3.15104H12.795Z" fill="white"/>
<path d="M20.4342 3.15104C20.4342 2.31533 20.1022 1.51385 19.5112 0.922919C18.9203 0.331984 18.1188 6.30942e-08 17.2831 0C16.4474 -6.30942e-08 15.6459 0.331984 15.055 0.922919C14.4641 1.51385 14.1321 2.31533 14.1321 3.15104L17.2831 3.15104H20.4342Z" fill="white"/>
<path d="M28.0726 3.15104C28.0726 2.31533 27.7406 1.51385 27.1497 0.922919C26.5587 0.331984 25.7573 6.30942e-08 24.9216 0C24.0858 -6.30942e-08 23.2844 0.331984 22.6934 0.922919C22.1025 1.51385 21.7705 2.31533 21.7705 3.15104L24.9215 3.15104H28.0726Z" fill="white"/>
<path d="M12.795 37.5257C12.795 38.3614 12.463 39.1629 11.8721 39.7538C11.2812 40.3448 10.4797 40.6768 9.64396 40.6768C8.80825 40.6768 8.00677 40.3448 7.41584 39.7538C6.8249 39.1629 6.49292 38.3614 6.49292 37.5257L9.64396 37.5257H12.795Z" fill="white"/>
<path d="M20.4342 37.5257C20.4342 38.3614 20.1022 39.1629 19.5112 39.7538C18.9203 40.3448 18.1188 40.6768 17.2831 40.6768C16.4474 40.6768 15.6459 40.3448 15.055 39.7538C14.4641 39.1629 14.1321 38.3614 14.1321 37.5257L17.2831 37.5257H20.4342Z" fill="white"/>
<path d="M28.0726 37.5257C28.0726 38.3614 27.7406 39.1629 27.1497 39.7538C26.5587 40.3448 25.7573 40.6768 24.9216 40.6768C24.0858 40.6768 23.2844 40.3448 22.6934 39.7538C22.1025 39.1629 21.7705 38.3614 21.7705 37.5257L24.9215 37.5257H28.0726Z" fill="white"/>
</svg>
