<svg width="288" height="181" viewBox="0 0 288 181" fill="none" xmlns="http://www.w3.org/2000/svg">
<rect x="3" y="3" width="175" height="175" rx="25.0714" stroke="white" stroke-width="6"/>
<path d="M75.0224 64.5197L61.1722 93.5085H72.7677L83.0749 73.2163L102.723 112.834C103.152 113.908 104.414 116.818 107.554 119.598C110.453 122.165 116.895 121.853 119.472 121.853L90.8052 64.5197C90.161 63.2314 88.2284 60 83.0749 60C76.6278 60 75.0224 64.5197 75.0224 64.5197Z" fill="white"/>
<path d="M56.6629 102.527L47 121.843C50.5431 121.843 56.1708 122.288 59.2397 119.921C60.5796 118.887 61.4944 117.666 62.1386 116.7C62.7828 115.733 66.3258 108.325 66.3258 108.325H93.382L88.2285 98.0179H64.7154C63.9638 98.0179 62.0097 98.2112 60.206 98.9842C58.4022 99.7573 57.0924 101.668 56.6629 102.527Z" fill="white"/>
<path d="M121.404 111.215V75.4684C123.337 75.7905 125.158 76.5413 127.524 77.7228C129.94 78.9293 132.571 81.0505 133 81.5872V121.843C128.491 121.843 127.117 121.347 124.625 118.944C122.272 116.674 121.404 114.112 121.404 111.215Z" fill="white"/>
<path d="M121.404 60.0103V70.3157C122.371 70.5304 124.948 71.3463 127.524 72.8921C130.101 74.4379 132.034 76.3272 133 77.0786V69.9937C133 69.9937 133 65.4851 129.457 62.5867C127.055 60.6222 123.23 59.903 121.404 60.0103Z" fill="white"/>
<rect x="258" y="84" width="16" height="77" transform="rotate(90 258 84)" fill="white"/>
<rect x="231" y="62" width="15" height="50" transform="rotate(90 231 62)" fill="white"/>
<rect x="241" y="107" width="15.2542" height="60" transform="rotate(90 241 107)" fill="white"/>
<circle cx="271.5" cy="90.5" r="16.5" fill="white"/>
<circle cx="231.5" cy="60.5" r="16.5" fill="white"/>
<circle cx="241.5" cy="123.5" r="16.5" fill="white"/>
</svg>
