<svg width="55" height="35" viewBox="0 0 55 35" fill="none" xmlns="http://www.w3.org/2000/svg">
<rect x="1" y="1" width="32.566" height="32.566" rx="2.41146" stroke="white" stroke-width="2"/>
<path d="M14.3266 12.3216L11.6816 17.8577H13.8961L15.8644 13.9824L19.6166 21.5484C19.6987 21.7534 19.9395 22.3091 20.5393 22.8401C21.0929 23.3302 22.3232 23.2707 22.8152 23.2707L17.3407 12.3216C17.2177 12.0756 16.8486 11.4585 15.8644 11.4585C14.6332 11.4585 14.3266 12.3216 14.3266 12.3216Z" fill="white"/>
<path d="M10.8217 19.5802L8.97632 23.2689C9.65295 23.2689 10.7277 23.3539 11.3138 22.9018C11.5696 22.7044 11.7443 22.4712 11.8674 22.2867C11.9904 22.1021 12.667 20.6874 12.667 20.6874H17.834L16.8498 18.719H12.3595C12.2159 18.719 11.8428 18.7559 11.4983 18.9035C11.1538 19.0512 10.9037 19.4161 10.8217 19.5802Z" fill="white"/>
<path d="M23.1851 21.2392V14.4125C23.5541 14.474 23.902 14.6174 24.3538 14.8431C24.8152 15.0735 25.3175 15.4786 25.3995 15.5811V23.2687C24.5383 23.2687 24.2759 23.174 23.8002 22.7152C23.3507 22.2817 23.1851 21.7925 23.1851 21.2392Z" fill="white"/>
<path d="M23.1851 11.4605V13.4285C23.3696 13.4695 23.8617 13.6253 24.3538 13.9205C24.8459 14.2157 25.2149 14.5765 25.3995 14.72V13.367C25.3995 13.367 25.3995 12.506 24.7228 11.9525C24.2642 11.5773 23.5336 11.44 23.1851 11.4605Z" fill="white"/>
<rect x="49.2712" y="16.0413" width="3.05556" height="14.7049" transform="rotate(90 49.2712 16.0413)" fill="white"/>
<rect x="44.1143" y="11.8401" width="2.86458" height="9.54861" transform="rotate(90 44.1143 11.8401)" fill="white"/>
<rect x="46.0242" y="20.4336" width="2.91314" height="11.4583" transform="rotate(90 46.0242 20.4336)" fill="white"/>
<circle cx="51.8493" cy="17.2831" r="3.15104" fill="white"/>
<circle cx="44.2096" cy="11.5541" r="3.15104" fill="white"/>
<circle cx="46.1198" cy="23.5846" r="3.15104" fill="white"/>
</svg>
