<svg width="288" height="181" viewBox="0 0 288 181" fill="none" xmlns="http://www.w3.org/2000/svg">
<rect x="3" y="3" width="175" height="175" rx="25.0714" stroke="white" stroke-width="6"/>
<path d="M111.419 41.9855L127.459 58.0255V126.015H57.9854V41.9855H111.419Z" stroke="white" stroke-width="3.96993"/>
<path d="M112.241 57.203V40L129.444 57.203H112.241Z" fill="white"/>
<rect x="70" y="77" width="44" height="3" fill="white"/>
<rect x="70" y="88" width="44" height="3" fill="white"/>
<rect x="70" y="99" width="44" height="3" fill="white"/>
<rect x="258" y="83" width="16" height="77" transform="rotate(90 258 83)" fill="white"/>
<rect x="231" y="61" width="15" height="50" transform="rotate(90 231 61)" fill="white"/>
<rect x="241" y="106" width="15.2542" height="60" transform="rotate(90 241 106)" fill="white"/>
<circle cx="271.5" cy="89.5" r="16.5" fill="white"/>
<circle cx="231.5" cy="59.5" r="16.5" fill="white"/>
<circle cx="241.5" cy="122.5" r="16.5" fill="white"/>
</svg>
