<svg width="26" height="24" viewBox="0 0 26 24" fill="none" xmlns="http://www.w3.org/2000/svg">
<path d="M13.8093 1.28296C16.5536 1.28304 19.047 2.35214 20.9001 4.09448L17.3992 5.87964C15.997 4.93489 14.3079 4.38361 12.49 4.38354C7.73718 4.38354 3.86658 8.15282 3.69995 12.865L3.53589 12.948C3.48125 12.5197 3.45192 12.0834 3.4519 11.6404C3.4519 5.92031 8.08925 1.28296 13.8093 1.28296Z" fill="white"/>
<path d="M21.9603 9.1763L14.9714 7.2842L21.9679 1.93576L21.9603 9.1763Z" fill="white"/>
<path d="M12.1904 22.6785C9.44613 22.6784 6.95273 21.6093 5.09961 19.8669L8.60156 18.0808C10.0039 19.0257 11.6927 19.5779 13.5107 19.5779C18.2631 19.5777 22.1327 15.809 22.2998 11.0974L22.4639 11.0134C22.5185 11.4417 22.5478 11.878 22.5479 12.321C22.5479 18.0411 17.9105 22.6785 12.1904 22.6785Z" fill="white"/>
<path d="M4.03944 14.7851L11.0284 16.6772L4.03187 22.0257L4.03944 14.7851Z" fill="white"/>
</svg>
